<svg xmlns="http://www.w3.org/2000/svg" viewBox="0 0 200 200" width="200" height="200">
  <defs>
    <linearGradient id="warmGradient" x1="0%" y1="100%" x2="100%" y2="0%">
      <stop offset="0%" style="stop-color:#FF9A8B"/>
      <stop offset="50%" style="stop-color:#FF6B6B"/>
      <stop offset="100%" style="stop-color:#E84393"/>
    </linearGradient>
    <linearGradient id="tealGradient" x1="0%" y1="0%" x2="100%" y2="100%">
      <stop offset="0%" style="stop-color:#79C5C7"/>
      <stop offset="50%" style="stop-color:#2EA6D4"/>
      <stop offset="100%" style="stop-color:#00A79D"/>
    </linearGradient>
  </defs>
  <circle cx="100" cy="100" r="98" fill="#231F20" stroke="url(#warmGradient)" stroke-width="1" opacity="0.3"/>
  <!-- Central neuron figure -->
  <path d="M40 140 Q50 100 55 80 Q60 60 70 50 Q80 45 95 55 L100 50 Q110 40 120 55 Q130 70 125 90 Q120 110 110 130 Q100 145 85 150 Q70 155 55 145 Q45 135 40 140" fill="url(#warmGradient)" opacity="0.95"/>
  <!-- Branching dendrites -->
  <path d="M95 55 Q110 45 125 55 Q135 65 130 80" stroke="url(#warmGradient)" stroke-width="2" fill="none" stroke-linecap="round"/>
  <path d="M100 50 Q115 35 135 45 Q145 55 140 70" stroke="url(#warmGradient)" stroke-width="1.5" fill="none" stroke-linecap="round"/>
  <!-- Neural network dots -->
  <circle cx="145" cy="60" r="4" fill="#79C5C7" opacity="0.9"/>
  <circle cx="155" cy="75" r="3" fill="#2EA6D4" opacity="0.85"/>
  <circle cx="135" cy="85" r="5" fill="#00A79D" opacity="0.9"/>
  <circle cx="150" cy="95" r="3.5" fill="#1B75BB" opacity="0.8"/>
  <circle cx="125" cy="70" r="4" fill="#79C5C7" opacity="0.85"/>
  <circle cx="140" cy="110" r="3" fill="#2EA6D4" opacity="0.9"/>
  <circle cx="160" cy="65" r="2.5" fill="#00A79D" opacity="0.75"/>
  <circle cx="130" cy="55" r="3" fill="#1B75BB" opacity="0.85"/>
  <circle cx="115" cy="95" r="4" fill="#79C5C7" opacity="0.8"/>
  <circle cx="120" cy="115" r="3" fill="#2EA6D4" opacity="0.85"/>
  <circle cx="105" cy="125" r="3.5" fill="#00A79D" opacity="0.9"/>
  <circle cx="90" cy="110" r="2.5" fill="#1B75BB" opacity="0.8"/>
  <circle cx="75" cy="95" r="3" fill="#79C5C7" opacity="0.85"/>
  <circle cx="65" cy="115" r="4" fill="#2EA6D4" opacity="0.8"/>
  <circle cx="55" cy="100" r="3" fill="#00A79D" opacity="0.9"/>
  <circle cx="70" cy="75" r="2.5" fill="#1B75BB" opacity="0.85"/>
</svg>
